<svg width="92" height="28" viewBox="0 0 92 28" fill="none" xmlns="http://www.w3.org/2000/svg">
<path d="M75 15.7315C78.1765 15.7315 83.7562 8.25237 84 22.8107" stroke="black" stroke-width="0.5"/>
<path d="M10.344 23.48C8.664 23.48 7.12 23.072 5.712 22.256C4.304 21.424 3.184 20.288 2.352 18.848C1.536 17.392 1.128 15.76 1.128 13.952C1.128 12.208 1.552 10.616 2.4 9.176C3.264 7.736 4.408 6.6 5.832 5.768C7.272 4.936 8.8 4.52 10.416 4.52C11.536 4.52 12.424 4.624 13.08 4.832C13.736 5.024 14.496 5.368 15.36 5.864V6.752C14.544 6.192 13.784 5.8 13.08 5.576C12.392 5.336 11.528 5.216 10.488 5.216C8.904 5.216 7.456 5.624 6.144 6.44C4.848 7.24 3.816 8.32 3.048 9.68C2.296 11.024 1.92 12.472 1.92 14.024C1.92 15.592 2.304 17.048 3.072 18.392C3.84 19.736 4.856 20.808 6.12 21.608C7.4 22.392 8.776 22.784 10.248 22.784C11.304 22.784 12.224 22.664 13.008 22.424C13.792 22.168 14.576 21.776 15.36 21.248V22.136C14.592 22.6 13.8 22.936 12.984 23.144C12.184 23.368 11.304 23.48 10.344 23.48ZM23.0543 23.384C21.9663 23.384 20.9823 23.12 20.1023 22.592C19.2223 22.048 18.5343 21.336 18.0383 20.456C17.5423 19.56 17.2943 18.592 17.2943 17.552C17.2943 16.528 17.5423 15.576 18.0383 14.696C18.5503 13.816 19.2383 13.12 20.1023 12.608C20.9823 12.08 21.9583 11.816 23.0303 11.816C24.0863 11.816 25.0463 12.08 25.9103 12.608C26.7903 13.12 27.4783 13.816 27.9743 14.696C28.4703 15.576 28.7183 16.528 28.7183 17.552C28.7183 18.624 28.4783 19.608 27.9983 20.504C27.5183 21.384 26.8463 22.088 25.9823 22.616C25.1343 23.128 24.1583 23.384 23.0543 23.384ZM23.0543 22.712C23.9663 22.712 24.7983 22.48 25.5503 22.016C26.3023 21.552 26.8863 20.936 27.3023 20.168C27.7343 19.384 27.9503 18.528 27.9503 17.6C27.9503 16.688 27.7343 15.84 27.3023 15.056C26.8703 14.272 26.2783 13.648 25.5263 13.184C24.7743 12.72 23.9423 12.488 23.0303 12.488C22.1183 12.488 21.2783 12.728 20.5103 13.208C19.7583 13.672 19.1583 14.296 18.7103 15.08C18.2783 15.864 18.0623 16.712 18.0623 17.624C18.0623 18.536 18.2783 19.384 18.7103 20.168C19.1583 20.936 19.7583 21.552 20.5103 22.016C21.2783 22.48 22.1263 22.712 23.0543 22.712ZM36.2016 23.264C35.1616 23.264 34.2016 23.008 33.3216 22.496C32.4576 21.984 31.7696 21.296 31.2576 20.432C30.7456 19.568 30.4896 18.624 30.4896 17.6C30.4896 16.576 30.7456 15.632 31.2576 14.768C31.7696 13.904 32.4576 13.216 33.3216 12.704C34.2016 12.192 35.1616 11.936 36.2016 11.936C37.2096 11.936 38.1696 12.208 39.0816 12.752C39.9936 13.28 40.6656 13.976 41.0976 14.84V5H41.8656V23H41.0976V20.384C40.6176 21.248 39.9216 21.944 39.0096 22.472C38.1136 23 37.1776 23.264 36.2016 23.264ZM36.1776 22.592C37.0576 22.592 37.8736 22.368 38.6256 21.92C39.3936 21.456 40.0016 20.848 40.4496 20.096C40.9136 19.328 41.1456 18.504 41.1456 17.624C41.1456 16.744 40.9136 15.92 40.4496 15.152C40.0016 14.384 39.3936 13.768 38.6256 13.304C37.8736 12.84 37.0576 12.608 36.1776 12.608C35.2976 12.608 34.4816 12.84 33.7296 13.304C32.9776 13.752 32.3776 14.36 31.9296 15.128C31.4816 15.896 31.2576 16.72 31.2576 17.6C31.2576 18.496 31.4736 19.328 31.9056 20.096C32.3536 20.848 32.9536 21.456 33.7056 21.92C34.4736 22.368 35.2976 22.592 36.1776 22.592ZM50.1508 22.616C50.9828 22.616 51.7748 22.4 52.5268 21.968C53.2788 21.536 53.9028 20.944 54.3988 20.192V21.416C53.8068 22.072 53.1588 22.552 52.4548 22.856C51.7508 23.144 50.9508 23.288 50.0548 23.288C49.0628 23.288 48.1268 23.024 47.2468 22.496C46.3828 21.968 45.6868 21.264 45.1588 20.384C44.6468 19.504 44.3908 18.568 44.3908 17.576C44.3908 16.504 44.6468 15.544 45.1588 14.696C45.6708 13.832 46.3668 13.16 47.2468 12.68C48.1428 12.2 49.1348 11.96 50.2228 11.96C51.8868 11.96 53.3028 12.616 54.4708 13.928L46.9348 21.368C47.4628 21.8 47.9748 22.12 48.4708 22.328C48.9668 22.52 49.5268 22.616 50.1508 22.616ZM45.1588 17.504C45.1588 18.832 45.5988 19.968 46.4788 20.912L53.5108 13.928C52.9828 13.464 52.4708 13.136 51.9748 12.944C51.4788 12.736 50.8868 12.632 50.1988 12.632C49.2228 12.632 48.3508 12.848 47.5828 13.28C46.8308 13.696 46.2388 14.272 45.8068 15.008C45.3748 15.744 45.1588 16.576 45.1588 17.504ZM56.8714 12.2H57.6394V13.832C58.3754 12.568 59.5594 11.936 61.1914 11.936C61.9754 11.936 62.6554 12.16 63.2314 12.608C63.8074 13.04 64.2074 13.696 64.4314 14.576C64.6394 13.792 65.0954 13.16 65.7994 12.68C66.5194 12.184 67.3274 11.936 68.2234 11.936C69.3914 11.936 70.2954 12.28 70.9354 12.968C71.5754 13.64 71.8954 14.6 71.8954 15.848V23H71.1274V15.848C71.1274 14.84 70.8634 14.048 70.3354 13.472C69.8234 12.896 69.1434 12.608 68.2954 12.608C67.6554 12.608 67.0634 12.768 66.5194 13.088C65.9754 13.392 65.5434 13.808 65.2234 14.336C64.9034 14.864 64.7434 15.448 64.7434 16.088V23H63.9754V16.28C63.9754 15.128 63.7034 14.232 63.1594 13.592C62.6154 12.936 61.9114 12.608 61.0474 12.608C60.4714 12.608 59.9194 12.752 59.3914 13.04C58.8794 13.328 58.4554 13.72 58.1194 14.216C57.7994 14.696 57.6394 15.224 57.6394 15.8V23H56.8714V12.2ZM74.9183 12.2H75.6863V14.6C76.0383 13.8 76.6383 13.16 77.4863 12.68C78.3343 12.184 79.2703 11.936 80.2943 11.936C81.6223 11.936 82.6703 12.36 83.4383 13.208C84.2223 14.04 84.6143 15.208 84.6143 16.712V23H83.8463V16.712C83.8463 15.416 83.5263 14.408 82.8863 13.688C82.2623 12.968 81.3823 12.608 80.2463 12.608C79.4143 12.608 78.6463 12.8 77.9423 13.184C77.2543 13.552 76.7023 14.064 76.2863 14.72C75.8863 15.376 75.6863 16.12 75.6863 16.952V23H74.9183V12.2ZM88.5808 9.728C88.3568 9.728 88.1568 9.648 87.9808 9.488C87.8208 9.328 87.7408 9.128 87.7408 8.888C87.7408 8.664 87.8208 8.472 87.9808 8.312C88.1568 8.152 88.3568 8.072 88.5808 8.072C88.8048 8.072 88.9968 8.152 89.1568 8.312C89.3328 8.472 89.4208 8.664 89.4208 8.888C89.4208 9.128 89.3328 9.328 89.1568 9.488C88.9968 9.648 88.8048 9.728 88.5808 9.728ZM88.1968 12.2H88.9648V23H88.1968V12.2Z" fill="black"/>
<path d="M15 5.81068C15 5.81068 15 5.8109 15.5 6.31068C16 6.81047 17.8329 8.53891 18.5 8.31068" stroke="black" stroke-width="0.65"/>
</svg>
